<?xml version="1.0" encoding="iso-8859-1"?>
<!-- Generator: Adobe Illustrator 15.1.0, SVG Export Plug-In . SVG Version: 6.00 Build 0)  -->
<!DOCTYPE svg PUBLIC "-//W3C//DTD SVG 1.1//EN" "http://www.w3.org/Graphics/SVG/1.1/DTD/svg11.dtd">
<svg version="1.1" id="Layer_1" xmlns="http://www.w3.org/2000/svg" xmlns:xlink="http://www.w3.org/1999/xlink" x="0px" y="0px"
	 width="101px" height="58.341px" viewBox="0 0 101 58.341" style="enable-background:new 0 0 101 58.341;" xml:space="preserve">
<g>
	<g>
		<path style="fill:#00497B;" d="M0,13.518c0-1.52,0.68-2.28,2.199-2.28h7.799c5.799,0,9.158,2.12,9.158,6.959
			c0,2.839-1.52,4.879-4.119,5.559c3.199,0.84,4.959,2.839,4.959,6.079c0,4.879-3.359,6.999-9.198,6.999H2.199
			c-1.52,0-2.199-0.76-2.199-2.28V13.518z M9.479,21.237c2.08,0,3.119-0.4,3.119-2.28s-1.08-2.32-3.199-2.32h-3v4.6H9.479z
			 M10.238,31.435c2.119,0,3.159-0.56,3.159-2.52c0-1.92-1.04-2.48-3.159-2.48h-3.84v5H10.238z M33.118,11.038
			c5.319,0,7.079,0.96,7.079,3.16v2.439h-7.079c-3.479,0-4.319,1.52-4.319,7.399s0.84,7.399,4.319,7.399h7.079v2.439
			c0,2.2-1.76,3.16-7.079,3.16c-7.079,0-10.918-3.879-10.918-12.998S26.039,11.038,33.118,11.038z M42.2,13.518
			c0-1.52,0.68-2.28,2.2-2.28h8.319c5.838,0,9.198,2.68,9.198,7.719c0,3.479-1.319,5.719-4.479,6.999l4.999,9.758
			c0.16,0.36,0.36,0.72,0.36,1.12h-5.52c-1.16,0-1.64,0-2.199-1.16l-4.48-9.239H48.6v10.398H42.2V13.518z M48.6,16.637v4.6h3.639
			c1.84,0,3.279-0.24,3.279-2.28c0-2-1.439-2.32-3.279-2.32H48.6z M0.104,43.438c0-0.618,0.22-0.957,0.818-0.957h1.058v11.112h5.605
			v0.818c0,0.618-0.339,0.838-0.958,0.838H0.921c-0.598,0-0.818-0.339-0.818-0.958V43.438z M15.522,53.933v0.458
			c0,0.778-1.057,0.958-3.251,0.958c-3.113,0-4.07-2.294-4.07-5.087s1.018-5.087,4.049-5.087c2.454,0,3.731,1.516,3.731,3.71
			c0,0.458,0,0.878-0.099,1.835h-5.807c0,2.314,0.779,3.212,2.394,3.212H15.522z M14.146,49.484c0.021-0.18,0.021-0.579,0.021-0.818
			c0-0.957-0.38-2.154-1.895-2.154c-1.377,0-2.115,0.877-2.195,2.973H14.146z M23.542,55.25c-0.639,0-0.878-0.339-0.878-0.838
			v-0.319c-0.818,0.918-1.915,1.257-2.793,1.257c-1.795,0-2.912-1.097-2.912-2.773c0-2.514,2.633-3.152,5.705-3.292v-0.938
			c0-1.356-0.917-1.735-2.135-1.735h-2.872v-0.519c0-0.878,1.037-0.917,3.132-0.917c2.293,0,3.651,0.997,3.651,3.092v6.983H23.542z
			 M22.663,50.421c-2.733,0.06-3.83,0.659-3.83,1.936c0,1.097,0.777,1.496,1.795,1.496c0.759,0,1.517-0.339,2.035-0.818V50.421z
			 M29.503,45.175c1.755,0,2.953,0.04,2.953,0.917v0.519h-3.013c-0.897,0-1.476,0.398-1.476,1.037c0,2.075,5.027,1.477,5.027,4.828
			c0,1.636-1.078,2.873-3.891,2.873c-1.636,0-3.152,0-3.152-0.857v-0.559h3.353c1.196,0,1.755-0.419,1.755-1.317
			c0-1.895-5.008-1.517-5.008-4.868C26.052,46.152,27.349,45.175,29.503,45.175z M36.186,44.157h-1.795V43.02
			c0-0.599,0.219-0.938,0.818-0.938h0.977V44.157z M34.391,45.274h0.958c0.618,0,0.837,0.339,0.837,0.938v9.038h-1.795V45.274z
			 M38.379,55.25v-9.975h0.898c0.638,0,0.897,0.339,0.897,0.818v0.339c0.818-0.918,1.856-1.257,2.793-1.257
			c1.936,0,2.893,1.197,2.893,3.052v7.022h-1.774v-6.943c0-1.177-0.679-1.675-1.815-1.675c-0.759,0-1.537,0.359-2.096,0.837v7.781
			H38.379z M55.394,54.232c0,2.354-0.997,4.109-4.15,4.109c-2.215,0-3.092-0.18-3.092-0.957v-0.459h2.853
			c1.616,0,2.594-0.519,2.594-2.773v-0.339c-0.559,0.659-1.477,1.257-2.614,1.257c-2.353,0-3.43-1.816-3.43-4.948
			c0-3.112,1.077-4.947,3.43-4.947c1.138,0,2.056,0.598,2.614,1.257v-0.32c0-0.499,0.259-0.837,0.898-0.837h0.897V54.232z
			 M51.604,53.594c0.777,0,1.476-0.359,1.995-0.838v-5.307c-0.519-0.479-1.218-0.837-1.995-0.837c-1.576,0-2.195,1.257-2.195,3.511
			C49.408,52.396,50.027,53.594,51.604,53.594z"/>
		<path style="fill:#E30613;" d="M85.309,0c1.275,0,2.394,0.476,3.32,1.424c0.931,0.943,1.405,2.094,1.405,3.396
			c0,1.332-0.465,2.468-1.394,3.412c-0.929,0.947-2.057,1.421-3.332,1.421c-1.304,0-2.423-0.474-3.336-1.421
			c-0.925-0.943-1.392-2.08-1.392-3.412c0-1.301,0.467-2.44,1.38-3.383C82.886,0.486,84.005,0,85.309,0L85.309,0z M101,19.117
			v-2.931c0-2.771-2.248-5.025-5.021-5.025H74.635c-2.777,0-5.021,2.254-5.021,5.025v11.04h23.809V28.9H69.615v2.93
			c0,2.772,2.243,5.021,5.021,5.021h21.344c2.772,0,5.021-2.249,5.021-5.021V20.791H77.193v-1.673H101z"/>
	</g>
</g>
</svg>
