<?xml version="1.0" encoding="utf-8"?>
<!-- Generator: Adobe Illustrator 17.1.0, SVG Export Plug-In . SVG Version: 6.00 Build 0)  -->
<!DOCTYPE svg PUBLIC "-//W3C//DTD SVG 1.1//EN" "http://www.w3.org/Graphics/SVG/1.1/DTD/svg11.dtd">
<svg version="1.1" id="Layer_1" xmlns="http://www.w3.org/2000/svg" xmlns:xlink="http://www.w3.org/1999/xlink" x="0px" y="0px"
	 viewBox="0 0 521.549 67.5" enable-background="new 0 0 521.549 67.5" xml:space="preserve">
<path fill="#CF0A2C" d="M26.549,15.234c-0.095,1.084-1.179,1.084-1.179,1.084h-9.759l0.853-9.758c0.095-1.085,1.18-1.085,1.18-1.085
	h9.758L26.549,15.234z M31.686,18.487l1.328-15.18c0,0,0.285-3.253-2.968-3.253h-15.18c0,0-3.253,0-3.538,3.253L10,18.487
	c0,0-0.285,3.253,2.968,3.253h15.18C28.148,21.74,31.401,21.74,31.686,18.487"/>
<path fill="#CF0A2C" d="M77.511,15.234c-0.095,1.084-1.179,1.084-1.179,1.084h-9.759l0.853-9.758c0.095-1.085,1.18-1.085,1.18-1.085
	h9.758L77.511,15.234z M82.648,18.487l1.328-15.18c0,0,0.285-3.253-2.968-3.253h-15.18c0,0-3.253,0-3.538,3.253l-1.328,15.18
	c0,0-0.285,3.253,2.968,3.253h15.18C79.11,21.74,82.363,21.74,82.648,18.487"/>
<path fill="#CF0A2C" d="M52.884,5.475l-0.854,9.759c-0.095,1.084-1.179,1.084-1.179,1.084h-9.759l0.854-9.758
	c0.095-1.085,1.18-1.085,1.18-1.085H52.884z M55.527,0.054h-15.18c0,0-3.253,0-3.538,3.253l-1.328,15.18
	c0,0-0.284,3.253,2.969,3.253h10.301l-0.143,1.626c-0.094,1.085-1.18,1.085-1.18,1.085h-7.047l-0.38,4.337
	c0,0-0.095,1.084,0.99,1.084h9.216c0,0,3.253,0,3.538-3.253l0.432-4.936c0.939-0.162,2.779-0.784,2.99-3.196l1.328-15.18
	C58.495,3.307,58.78,0.054,55.527,0.054"/>
<path fill="#CF0A2C" d="M13.816,24.451H5.684L7.823,0H3.486c0,0-1.085,0-1.18,1.084L0.262,24.451L0.01,27.332l-0.005,0.054
	c0,0-0.217,2.487,2.27,2.487h9.983c0,0,1.084,0,1.179-1.085L13.816,24.451z"/>
<path fill="#001689" d="M279.392,5c0,0,0.437-5-4.563-5h-8.501h-13.5h-8.5c0,0-5,0-5.436,5l-0.745,8.5l-1.18,13.5l-3.543,40.5h13.5
	l3.543-40.5l1.18-13.5h13.5l-4.723,54h13.5l4.724-54L279.392,5z M305.292,13.5L306.473,0h-13.5l-1.181,13.5L290.611,27l-3.543,40.5
	h13.5h13.5l1.181-13.5h-13.5l2.362-27L305.292,13.5z"/>
<path fill="#FFD700" d="M323.542,27l-0.656,7.5c0,0-0.525,6,5.475,6h34.5l0.656-7.5c0,0,0.525-6-5.475-6H323.542z"/>
<path fill="#CF0A2C" d="M335.467,45h-13.5l-0.787,9l-0.657,7.5c0,0-0.525,6,5.475,6h28.5c0,0,6,0,6.525-6l0.657-7.5l1.181-13.5
	h-13.5L348.18,54h-13.5L335.467,45z M360.404,0h-7.5h-13.5h-7.5c0,0-6,0-6.525,6l-0.656,7.5L323.542,27h13.5l1.181-13.5h13.5
	l-0.788,9h13.5l0.788-9l0.656-7.5C365.879,6,366.404,0,360.404,0"/>
<path fill="#001689" d="M136.994,13.5L138.175,0h-13.5h-13.5h-13.5l-1.181,13.5h13.5l-4.724,54h13.5l4.724-54H136.994z
	 M170.667,13.5L167.124,54h-13.5l2.362-27l1.181-13.5H170.667z M184.823,6c0,0,0.525-6-5.475-6h-7.5h-13.5h-7.5c0,0-6,0-6.525,6
	l-0.656,7.5L142.486,27l-3.019,34.5c0,0-0.525,6,5.475,6h7.5h21c0,0,6,0,6.525-6l0.657-7.5l3.543-40.5L184.823,6z M232.47,0h-13.5
	h-13.5h-13.5l-1.181,13.5h13.5l-4.725,54h13.5l4.725-54h13.5L232.47,0z"/>
<path fill="#CF0A2C" d="M405.767,13.5L402.224,54h-13.5l2.362-27l1.181-13.5H405.767z M419.923,6c0,0,0.525-6-5.475-6h-7.5h-13.5
	h-7.5c0,0-6,0-6.525,6l-0.656,7.5L377.586,27l-3.019,34.5c0,0-0.525,6,5.475,6h7.5h21c0,0,6,0,6.525-6l0.657-7.5l3.543-40.5
	L419.923,6z M473.029,13.5L474.21,0h-13.5h-13.5h-13.5l-1.181,13.5L431.348,27l-1.181,13.5l-2.363,27h13.5l2.363-27h18l1.181-13.5
	h-18l1.181-13.5h13.5H473.029z M521.549,0h-13.5h-13.5h-13.5l-1.181,13.5h13.5l-4.725,54h13.5l4.725-54h13.5L521.549,0z"/>
<polygon fill="#FFD700" points="235.76,40.5 276.26,40.5 277.441,27 236.941,27 "/>
</svg>
